<?xml version="1.0" encoding="UTF-8"?>
<!DOCTYPE svg PUBLIC "-//W3C//DTD SVG 1.1//EN" "http://www.w3.org/Graphics/SVG/1.1/DTD/svg11.dtd">
<!-- Creator: CorelDRAW -->
<svg xmlns="http://www.w3.org/2000/svg" xml:space="preserve" width="673.532mm" height="42.799mm" version="1.1" style="shape-rendering:geometricPrecision; text-rendering:geometricPrecision; image-rendering:optimizeQuality; fill-rule:evenodd; clip-rule:evenodd"
viewBox="0 0 67353.18 4279.9"
 xmlns:xlink="http://www.w3.org/1999/xlink"
 xmlns:xodm="http://www.corel.com/coreldraw/odm/2003">
 <defs>
  <style type="text/css">
   <![CDATA[
    .str0 {stroke:black;stroke-width:150;stroke-miterlimit:22.9256}
    .fil0 {fill:none}
    .fil1 {fill:black}
   ]]>
  </style>
 </defs>
 <g id="Camada_x0020_1">
  <metadata id="CorelCorpID_0Corel-Layer"/>
  <g id="_2267898047424">
   <path class="fil0 str0" d="M16.96 757.76c1097.47,0 3401.79,68.08 5066.94,162.1 2396.25,135.32 5228.48,-489.02 7034.39,-116.8 2619.05,539.83 5348.28,54.02 7587.77,196.63 2239.49,142.62 2326.83,346.78 5386.46,55.67 3059.64,-291.11 3706.07,-642.97 5334.11,-159.9 1628.03,483.06 5619.88,529.72 8334.95,321.64 2715.08,-208.08 3310.88,-728.99 5886.95,-223.72 2576.07,505.26 5606.59,384.94 8980.56,-60.42 3373.97,-445.35 4302.66,392.49 7038.04,536.43 2735.38,143.93 3313.52,-728.81 6704.28,-728.81"/>
   <path class="fil1" d="M13697.97 2325.04c17.68,-212.46 597.64,-248.36 615.86,-29.32 -40.95,3.41 -102.5,13.71 -154.78,21.17 -175.4,25.03 -268.56,8.15 -461.08,8.15zm-117.31 -29.32c0,197.39 226.69,146.63 542.55,146.63 463.67,-26.04 272.59,-301.92 272.59,-301.92 -102.14,-139.93 -439.9,-197.81 -671.79,-53.29 -60.98,38 -143.35,118.87 -143.35,208.58z"/>
   <path class="fil1" d="M3330.95 2325.04c2.24,-100.92 57.78,-127.9 127.01,-166.25 134,-74.22 185.02,-68.36 327.55,-68.36 131.65,0 325.13,119.6 351.92,219.95 -52.81,12.3 -54.29,23.71 -125.15,36.15 -151.06,26.52 -408.86,56.13 -560.78,19.25 -46.23,-11.22 -74.96,-30.11 -120.55,-40.74zm454.56 -351.92c-167.77,0 -221.63,-6.69 -390.08,93.81 -78.49,46.82 -139.49,102.79 -160.28,208.18 -56.68,287.2 658.04,206.38 833.16,171.44 413.75,-82.58 -43.42,-473.43 -282.8,-473.43z"/>
   <path class="fil1" d="M24100.08 3039.22c57.71,-4.8 50.77,-14.91 102.05,-29.92 117.82,-34.48 200.8,-6.42 293.86,15.26l0 29.33c-49.29,1.09 -139.15,16.61 -197.03,23.81 -35.19,4.37 -132.75,-9.15 -198.88,-9.15l0 -29.33zm-161.3 14.67c0,179.56 136.76,131.97 483.9,131.97 103.72,0 251.45,-62.91 228.58,-184.89 -37.06,-197.55 -402,-158.89 -549.91,-107.11 -61.34,21.48 -162.57,78.75 -162.57,160.03z"/>
   <path class="fil1" d="M16190.75 4113.98c391.94,0 242.17,-146.64 117.31,-146.64 -171.55,0 -223.79,146.64 -117.31,146.64z"/>
   <path class="fil1" d="M12598.22 2852.92c0,75.56 13.39,58.66 190.62,58.66 69.58,0 89.37,-31 102.64,-87.98 -100.28,-67.15 -293.26,-59.53 -293.26,29.32z"/>
   <path class="fil1" d="M18888.81 2178.41l0 58.65c87.51,0 144.15,6.55 223.2,-26.08 52.64,-21.73 53.92,-24.35 55.41,-91.23 -70.66,-16.46 -278.61,-42.86 -278.61,58.66z"/>
   <path class="fil1" d="M779.51 2442.35c0,9.33 33.05,42.31 43.99,58.65 140.09,0 190.63,9.42 190.63,-117.31 -120.35,-57.74 -234.62,-19.72 -234.62,58.66z"/>
   <path class="fil1" d="M8184.53 2075.76c0,109.24 199.7,40.9 249.28,14.67l0 -73.32c-105.21,-50.48 -249.28,2.15 -249.28,58.65z"/>
   <path class="fil1" d="M19695.3 2354.37l0 73.32c52.06,27.54 96.44,42.21 169.17,22.53 83.99,-22.74 31.62,10.28 50.78,-37.2 46.11,0 -8.87,-170.34 -219.95,-58.65z"/>
   <path class="fil1" d="M10105.44 3762.06c105.62,50.67 278.6,12.04 278.6,-29.33 0,-87.01 -238.07,-122.48 -278.6,29.33z"/>
   <path class="fil1" d="M9035.01 2676.96c84.07,19.59 155.02,-0.51 219.95,-43.98 0,-123.74 -91.09,-118.41 -170.97,-68.33 -45.39,28.46 -48.98,44.1 -48.98,112.31z"/>
   <path class="fil1" d="M5779.73 3542.11c37,3.08 238.08,46.67 249.28,-87.99 -28.4,-6.61 -138.3,-64.1 -221.4,-1.45 -40.7,30.69 -27.88,21.15 -27.88,89.44z"/>
   <path class="fil1" d="M5251.85 2325.04c0,105.66 -15.92,87.98 190.62,87.98 52.08,0 43.99,-28.97 43.99,-87.98 -74.63,-39.49 -161.05,-44.1 -234.61,0z"/>
   <path class="fil1" d="M4489.35 2515.67c0,73.58 -0.27,73.31 73.32,73.31 87.81,0 87.56,-28.21 146.64,-43.99 -1.53,-68.4 -10.85,-92.33 -83.12,-85.61 -97.54,9.06 -136.84,8.7 -136.84,56.29z"/>
   <path class="fil1" d="M7451.36 3586.09c0,54.08 -12.96,102.65 43.99,102.65 37.98,0 97.4,-7.53 126.79,-19.84 47.88,-20.06 47.84,-37.69 49.17,-97.47 -111.21,-26.62 -83.01,-17.24 -219.95,14.66z"/>
   <path class="fil1" d="M18419.58 3380.81c0,52.04 234.62,38.4 234.62,-14.66 0,-83.78 -234.62,-96.12 -234.62,14.66z"/>
   <path class="fil1" d="M10838.61 3248.84c12.22,146.95 215.37,87.91 215.15,-4.95 -0.2,-82.62 -121.54,-16.86 -215.15,4.95z"/>
   <path class="fil1" d="M12172.98 2676.96c47.15,31.58 33.2,28.88 101.41,14.66 101.13,-21.09 103.87,-36.49 103.87,-87.97 -91.12,-43.72 -180.3,-33.95 -205.28,73.31z"/>
   <path class="fil1" d="M13917.92 4011.34l30.13 58.22c96.8,1.46 170.09,-12.77 145.83,-116.88 -106.26,0 -130.78,-8.82 -175.96,58.66z"/>
   <path class="fil1" d="M2157.87 3850.04c0,94.64 74.75,59.6 131.97,29.32 0,-37.91 8.34,-102.64 -29.32,-102.64 -49.42,0 -102.65,25.91 -102.65,73.32z"/>
   <path class="fil1" d="M20457.8 3864.7l30.13 58.23c68.1,1.02 79.52,4.23 131.17,-72.89 -53.46,-35.8 -95.48,-83.63 -161.3,14.66z"/>
   <path class="fil1" d="M7656.65 2325.04c76.49,0 142.01,-15.74 161.29,-87.98 -47.43,-11.05 -64.32,-24.91 -117.3,-29.33 -26.99,40.31 -38.65,53.15 -43.99,117.31z"/>
   <path class="fil1" d="M6659.54 3850.04c0,84.65 104.04,49.76 146.63,29.32l0 -73.31c-91.79,-21.39 -146.63,24.17 -146.63,43.99z"/>
   <path class="fil1" d="M17349.16 2852.92c0,89.57 122.58,58.29 127.19,-19.42 4.93,-82.99 -127.19,-50.29 -127.19,19.42z"/>
   <path class="fil1" d="M15882.82 2398.36c0,58.61 129.11,84.4 131.97,-43.99 -42.97,-10.01 -131.97,-25.6 -131.97,43.99z"/>
   <path class="fil1" d="M1512.68 3292.83l0 73.32c108.18,0 96.85,8.46 131.97,-44 -46.68,-63.7 -62.09,-36.63 -131.97,-29.32z"/>
   <path class="fil1" d="M1776.62 2163.75c115.31,0 131.79,-3.08 146.64,-58.66 -46.93,-26.37 -72.56,-17.8 -110.01,7.3 -40.7,27.26 -26,11.54 -36.63,51.36z"/>
   <path class="fil1" d="M38060.53 4273.68c391.94,0 242.17,-146.64 117.31,-146.64 -171.55,0 -223.79,146.64 -117.31,146.64z"/>
   <path class="fil1" d="M34468 3012.62c0,75.56 13.39,58.66 190.62,58.66 69.58,0 89.37,-31 102.64,-87.98 -100.28,-67.15 -293.26,-59.53 -293.26,29.32z"/>
   <path class="fil1" d="M40758.59 2338.11l0 58.65c87.51,0 144.15,6.55 223.2,-26.08 52.64,-21.73 53.92,-24.35 55.41,-91.23 -70.66,-16.46 -278.61,-42.86 -278.61,58.66z"/>
   <path class="fil1" d="M21201.57 3124.65c0,9.33 33.05,42.31 43.99,58.65 140.09,0 190.63,9.42 190.63,-117.31 -120.35,-57.74 -234.62,-19.72 -234.62,58.66z"/>
   <path class="fil1" d="M29469.12 1868.15c0,109.24 199.7,40.9 249.28,14.67l0 -73.32c-105.21,-50.48 -249.28,2.15 -249.28,58.65z"/>
   <path class="fil1" d="M41565.08 2514.07l0 73.32c52.06,27.54 96.44,42.21 169.17,22.53 83.99,-22.74 31.62,10.28 50.78,-37.2 46.11,0 -8.87,-170.34 -219.95,-58.65z"/>
   <path class="fil1" d="M31975.22 3921.76c105.62,50.67 278.6,12.04 278.6,-29.33 0,-87.01 -238.07,-122.48 -278.6,29.33z"/>
   <path class="fil1" d="M30319.6 2469.35c84.07,19.59 155.02,-0.51 219.95,-43.98 0,-123.74 -91.09,-118.41 -170.97,-68.33 -45.39,28.46 -48.98,44.1 -48.98,112.31z"/>
   <path class="fil1" d="M27649.51 3701.81c37,3.08 238.08,46.67 249.28,-87.99 -28.4,-6.61 -138.3,-64.1 -221.4,-1.45 -40.7,30.69 -27.88,21.15 -27.88,89.44z"/>
   <path class="fil1" d="M27121.63 2484.74c0,105.66 -15.92,87.98 190.62,87.98 52.08,0 43.99,-28.97 43.99,-87.98 -74.63,-39.49 -161.05,-44.1 -234.61,0z"/>
   <path class="fil1" d="M26359.13 2675.37c0,73.58 -0.27,73.31 73.32,73.31 87.81,0 87.56,-28.21 146.64,-43.99 -1.53,-68.4 -10.85,-92.33 -83.12,-85.61 -97.54,9.06 -136.84,8.7 -136.84,56.29z"/>
   <path class="fil1" d="M29256.46 3209.3c0,54.08 -12.96,102.65 43.99,102.65 37.98,0 97.4,-7.53 126.79,-19.84 47.88,-20.06 47.84,-37.69 49.17,-97.47 -111.21,-26.62 -83.01,-17.24 -219.95,14.66z"/>
   <path class="fil1" d="M40289.36 3540.51c0,52.04 234.62,38.4 234.62,-14.66 0,-83.78 -234.62,-96.12 -234.62,14.66z"/>
   <path class="fil1" d="M32291.34 2836.62c12.22,146.95 215.37,87.91 215.15,-4.95 -0.2,-82.62 -121.54,-16.86 -215.15,4.95z"/>
   <path class="fil1" d="M34042.76 2836.66c47.15,31.58 33.2,28.88 101.41,14.66 101.13,-21.09 103.87,-36.49 103.87,-87.97 -91.12,-43.72 -180.3,-33.95 -205.28,73.31z"/>
   <path class="fil1" d="M35787.7 4171.04l30.13 58.22c96.8,1.46 170.09,-12.77 145.83,-116.88 -106.26,0 -130.78,-8.82 -175.96,58.66z"/>
   <path class="fil1" d="M24027.65 4009.74c0,94.64 74.75,59.6 131.97,29.32 0,-37.91 8.34,-102.64 -29.32,-102.64 -49.42,0 -102.65,25.91 -102.65,73.32z"/>
   <path class="fil1" d="M42327.58 4024.4l30.13 58.23c68.1,1.02 79.52,4.23 131.17,-72.89 -53.46,-35.8 -95.48,-83.63 -161.3,14.66z"/>
   <path class="fil1" d="M28941.24 2117.43c76.49,0 142.01,-15.74 161.29,-87.98 -47.43,-11.05 -64.32,-24.91 -117.3,-29.33 -26.99,40.31 -38.65,53.15 -43.99,117.31z"/>
   <path class="fil1" d="M28529.32 4009.74c0,84.65 104.04,49.76 146.63,29.32l0 -73.31c-91.79,-21.39 -146.63,24.17 -146.63,43.99z"/>
   <path class="fil1" d="M39218.94 3012.62c0,89.57 122.58,58.29 127.19,-19.42 4.93,-82.99 -127.19,-50.29 -127.19,19.42z"/>
   <path class="fil1" d="M37752.6 2558.06c0,58.61 129.11,84.4 131.97,-43.99 -42.97,-10.01 -131.97,-25.6 -131.97,43.99z"/>
   <path class="fil1" d="M23382.46 3452.53l0 73.32c108.18,0 96.85,8.46 131.97,-44 -46.68,-63.7 -62.09,-36.63 -131.97,-29.32z"/>
   <path class="fil1" d="M33614.15 3862.05c17.68,-212.46 597.64,-248.36 615.86,-29.32 -40.95,3.41 -102.5,13.71 -154.78,21.17 -175.4,25.03 -268.56,8.15 -461.08,8.15zm-117.31 -29.32c0,197.39 226.69,146.63 542.55,146.63 463.67,-26.04 272.59,-301.92 272.59,-301.92 -102.14,-139.93 -439.9,-197.81 -671.79,-53.29 -60.98,38 -143.35,118.87 -143.35,208.58z"/>
   <path class="fil1" d="M43965.19 2501.53c2.24,-100.92 57.78,-127.9 127.01,-166.25 134,-74.22 185.02,-68.36 327.55,-68.36 131.65,0 325.13,119.6 351.92,219.95 -52.81,12.3 -54.29,23.71 -125.15,36.15 -151.06,26.52 -408.86,56.13 -560.78,19.25 -46.23,-11.22 -74.96,-30.11 -120.55,-40.74zm454.56 -351.92c-167.77,0 -221.63,-6.69 -390.08,93.81 -78.49,46.82 -139.49,102.79 -160.28,208.18 -56.68,287.2 658.04,206.38 833.16,171.44 413.75,-82.58 -43.42,-473.43 -282.8,-473.43z"/>
   <path class="fil1" d="M47431.47 2741.75c0,109.24 199.7,40.9 249.28,14.67l0 -73.32c-105.21,-50.48 -249.28,2.15 -249.28,58.65z"/>
   <path class="fil1" d="M49937.57 3474.56c105.62,50.67 278.6,12.04 278.6,-29.33 0,-87.01 -238.07,-122.48 -278.6,29.33z"/>
   <path class="fil1" d="M48463.71 3352.32c84.07,19.59 155.02,-0.51 219.95,-43.98 0,-123.74 -91.09,-118.41 -170.97,-68.33 -45.39,28.46 -48.98,44.1 -48.98,112.31z"/>
   <path class="fil1" d="M45611.86 4575.41c37,3.08 238.08,46.67 249.28,-87.99 -28.4,-6.61 -138.3,-64.1 -221.4,-1.45 -40.7,30.69 -27.88,21.15 -27.88,89.44z"/>
   <path class="fil1" d="M45083.98 3358.34c0,105.66 -15.92,87.98 190.62,87.98 52.08,0 43.99,-28.97 43.99,-87.98 -74.63,-39.49 -161.05,-44.1 -234.61,0z"/>
   <path class="fil1" d="M44321.48 3548.97c0,73.58 -0.27,73.31 73.32,73.31 87.81,0 87.56,-28.21 146.64,-43.99 -1.53,-68.4 -10.85,-92.33 -83.12,-85.61 -97.54,9.06 -136.84,8.7 -136.84,56.29z"/>
   <path class="fil1" d="M47218.81 4082.9c0,54.08 -12.96,102.65 43.99,102.65 37.98,0 97.4,-7.53 126.79,-19.84 47.88,-20.06 47.84,-37.69 49.17,-97.47 -111.21,-26.62 -83.01,-17.24 -219.95,14.66z"/>
   <path class="fil1" d="M50253.69 2389.42c12.22,146.95 215.37,87.91 215.15,-4.95 -0.2,-82.62 -121.54,-16.86 -215.15,4.95z"/>
   <path class="fil1" d="M52005.11 2389.46c47.15,31.58 33.2,28.88 101.41,14.66 101.13,-21.09 103.87,-36.49 103.87,-87.97 -91.12,-43.72 -180.3,-33.95 -205.28,73.31z"/>
   <path class="fil1" d="M53597.65 3723.84l30.13 58.22c96.8,1.46 170.09,-12.77 145.83,-116.88 -106.26,0 -130.78,-8.82 -175.96,58.66z"/>
   <path class="fil1" d="M46903.59 2991.03c76.49,0 142.01,-15.74 161.29,-87.98 -47.43,-11.05 -64.32,-24.91 -117.3,-29.33 -26.99,40.31 -38.65,53.15 -43.99,117.31z"/>
   <path class="fil1" d="M46491.67 4883.34c0,84.65 104.04,49.76 146.63,29.32l0 -73.31c-91.79,-21.39 -146.63,24.17 -146.63,43.99z"/>
   <path class="fil1" d="M55562.55 2110.86c0,58.61 129.11,84.4 131.97,-43.99 -42.97,-10.01 -131.97,-25.6 -131.97,43.99z"/>
   <path class="fil1" d="M35756 2733.54l30.13 58.22c96.8,1.46 170.09,-12.77 145.83,-116.88 -106.26,0 -130.78,-8.82 -175.96,58.66z"/>
   <path class="fil1" d="M37112.31 3506.99c391.94,0 242.17,-146.64 117.31,-146.64 -171.55,0 -223.79,146.64 -117.31,146.64z"/>
   <path class="fil1" d="M45855.9 1964.64c0,54.08 -12.96,102.65 43.99,102.65 37.98,0 97.4,-7.53 126.79,-19.84 47.88,-20.06 47.84,-37.69 49.17,-97.47 -111.21,-26.62 -83.01,-17.24 -219.95,14.66z"/>
   <path class="fil1" d="M42459.88 1763.53l0 73.32c52.06,27.54 96.44,42.21 169.17,22.53 83.99,-22.74 31.62,10.28 50.78,-37.2 46.11,0 -8.87,-170.34 -219.95,-58.65z"/>
   <path class="fil1" d="M51509.96 4344.32c57.71,-4.8 50.77,-14.91 102.05,-29.92 117.82,-34.48 200.8,-6.42 293.86,15.26l0 29.33c-49.29,1.09 -139.15,16.61 -197.03,23.81 -35.19,4.37 -132.75,-9.15 -198.88,-9.15l0 -29.33zm-161.3 14.67c0,179.56 136.76,131.97 483.9,131.97 103.72,0 251.45,-62.91 228.58,-184.89 -37.06,-197.55 -402,-158.89 -549.91,-107.11 -61.34,21.48 -162.57,78.75 -162.57,160.03z"/>
   <path class="fil1" d="M62028.97 3184.59c1.7,100.92 43.68,127.9 96.02,166.25 101.3,74.22 139.87,68.36 247.62,68.36 99.52,0 245.79,-119.6 266.04,-219.95 -39.92,-12.3 -41.04,-23.71 -94.6,-36.15 -114.2,-26.52 -309.1,-56.13 -423.95,-19.25 -34.94,11.22 -56.66,30.11 -91.13,40.74zm343.64 351.92c-126.83,0 -167.55,6.69 -294.9,-93.81 -59.33,-46.82 -105.44,-102.79 -121.16,-208.18 -42.85,-287.2 497.47,-206.38 629.85,-171.44 312.79,82.58 -32.82,473.43 -213.79,473.43z"/>
   <path class="fil1" d="M56754.13 4159.69c391.94,0 242.17,-146.64 117.31,-146.64 -171.55,0 -223.79,146.64 -117.31,146.64z"/>
   <path class="fil1" d="M53161.6 2898.63c0,75.56 13.39,58.66 190.62,58.66 69.58,0 89.37,-31 102.64,-87.98 -100.28,-67.15 -293.26,-59.53 -293.26,29.32z"/>
   <path class="fil1" d="M59452.19 2224.12l0 58.65c87.51,0 144.15,6.55 223.2,-26.08 52.64,-21.73 53.92,-24.35 55.41,-91.23 -70.66,-16.46 -278.61,-42.86 -278.61,58.66z"/>
   <path class="fil1" d="M60258.68 2400.08l0 73.32c52.06,27.54 96.44,42.21 169.17,22.53 83.99,-22.74 31.62,10.28 50.78,-37.2 46.11,0 -8.87,-170.34 -219.95,-58.65z"/>
   <path class="fil1" d="M58982.96 3426.52c0,52.04 234.62,38.4 234.62,-14.66 0,-83.78 -234.62,-96.12 -234.62,14.66z"/>
   <path class="fil1" d="M54481.3 4057.05l30.13 58.22c96.8,1.46 170.09,-12.77 145.83,-116.88 -106.26,0 -130.78,-8.82 -175.96,58.66z"/>
   <path class="fil1" d="M61021.18 3910.41l30.13 58.23c68.1,1.02 79.52,4.23 131.17,-72.89 -53.46,-35.8 -95.48,-83.63 -161.3,14.66z"/>
   <path class="fil1" d="M57912.54 2898.63c0,89.57 122.58,58.29 127.19,-19.42 4.93,-82.99 -127.19,-50.29 -127.19,19.42z"/>
   <path class="fil1" d="M56446.2 2444.07c0,58.61 129.11,84.4 131.97,-43.99 -42.97,-10.01 -131.97,-25.6 -131.97,43.99z"/>
   <path class="fil1" d="M65068.07 4137.19c37,3.08 238.08,46.67 249.28,-87.99 -28.4,-6.61 -138.3,-64.1 -221.4,-1.45 -40.7,30.69 -27.88,21.15 -27.88,89.44z"/>
   <path class="fil1" d="M63777.69 3110.75c0,73.58 -0.27,73.31 73.32,73.31 87.81,0 87.56,-28.21 146.64,-43.99 -1.53,-68.4 -10.85,-92.33 -83.12,-85.61 -97.54,9.06 -136.84,8.7 -136.84,56.29z"/>
   <path class="fil1" d="M64889.76 2811.57c47.15,31.58 33.2,28.88 101.41,14.66 101.13,-21.09 103.87,-36.49 103.87,-87.97 -91.12,-43.72 -180.3,-33.95 -205.28,73.31z"/>
   <path class="fil1" d="M66359.8 2552.81c76.49,0 142.01,-15.74 161.29,-87.98 -47.43,-11.05 -64.32,-24.91 -117.3,-29.33 -26.99,40.31 -38.65,53.15 -43.99,117.31z"/>
   <path class="fil1" d="M65947.88 4445.12c0,84.65 104.04,49.76 146.63,29.32l0 -73.31c-91.79,-21.39 -146.63,24.17 -146.63,43.99z"/>
   <path class="fil1" d="M54449.6 2619.55l30.13 58.22c96.8,1.46 170.09,-12.77 145.83,-116.88 -106.26,0 -130.78,-8.82 -175.96,58.66z"/>
   <path class="fil1" d="M55805.91 3393c391.94,0 242.17,-146.64 117.31,-146.64 -171.55,0 -223.79,146.64 -117.31,146.64z"/>
   <path class="fil1" d="M65312.11 1526.42c0,54.08 -12.96,102.65 43.99,102.65 37.98,0 97.4,-7.53 126.79,-19.84 47.88,-20.06 47.84,-37.69 49.17,-97.47 -111.21,-26.62 -83.01,-17.24 -219.95,14.66z"/>
  </g>
 </g>
</svg>
